P2
3 3
255
255 128 0
64 192 32
0 0 0
