P2
40 40
250
0 3 6 9 13 16 19 22 26 29 32 35 39 42 45 49 52 55 58 62 65 68 71 75 78 81 85 88 91 94 98 101 104 107 111 114 117 120 124 127
3 6 9 13 16 19 22 26 29 32 35 39 42 45 49 52 55 58 62 65 68 71 75 78 81 85 88 91 94 98 101 104 107 111 114 117 120 124 127 130
6 9 13 16 19 22 26 29 32 35 39 42 45 49 52 55 58 62 65 68 71 75 78 81 85 88 91 94 98 101 104 107 111 114 117 120 124 127 130 134
9 13 16 19 22 26 29 32 35 39 42 45 49 52 55 58 62 65 68 71 75 78 81 85 88 91 94 98 101 104 107 111 114 117 120 124 127 130 134 137
13 16 19 22 26 29 32 35 39 42 45 49 52 55 58 62 65 68 71 75 78 81 85 88 91 94 98 101 104 107 111 114 117 120 124 127 130 134 137 140
16 19 22 26 29 32 35 39 42 45 49 52 55 58 62 65 68 71 75 78 81 85 88 91 94 98 101 104 107 111 114 117 120 124 127 130 134 137 140 143
19 22 26 29 32 35 39 42 45 49 52 55 58 62 65 68 71 75 78 81 85 88 91 94 98 101 104 107 111 114 117 120 124 127 130 134 137 140 143 147
22 26 29 32 35 39 42 45 49 52 55 58 62 65 68 71 75 78 81 85 88 91 94 98 101 104 107 111 114 117 120 124 127 130 134 137 140 143 147 150
26 29 32 35 39 42 45 49 52 55 58 62 65 68 71 75 78 81 85 88 91 94 98 101 104 107 111 114 117 120 124 127 130 134 137 140 143 147 150 153
29 32 35 39 42 45 49 52 55 58 62 65 68 71 75 78 81 85 88 91 94 98 101 104 107 111 114 117 120 124 127 130 134 137 140 143 147 150 153 156
32 35 39 42 45 49 52 55 58 62 65 68 71 75 78 81 85 88 91 94 98 101 104 107 111 114 117 120 124 127 130 134 137 140 143 147 150 153 156 160
35 39 42 45 49 52 55 58 62 65 68 71 75 78 81 85 88 91 94 98 101 104 107 111 114 117 120 124 127 130 134 137 140 143 147 150 153 156 160 163
39 42 45 49 52 55 58 62 65 68 71 75 78 81 85 88 91 94 98 101 104 107 111 114 117 120 124 127 130 134 137 140 143 147 150 153 156 160 163 166
42 45 49 52 55 58 62 65 68 71 75 78 81 85 88 91 94 98 101 104 107 111 114 117 120 124 127 130 134 137 140 143 147 150 153 156 160 163 166 170
45 49 52 55 58 62 65 68 71 75 78 81 85 88 91 94 98 101 104 107 111 114 117 120 124 127 130 134 137 140 143 147 150 153 156 160 163 166 170 173
49 52 55 58 62 65 68 71 75 78 81 85 88 91 94 98 101 104 107 111 114 117 120 124 127 130 134 137 140 143 147 150 153 156 160 163 166 170 173 176
52 55 58 62 65 68 71 75 78 81 85 88 91 94 98 101 104 107 111 114 117 120 124 127 130 134 137 140 143 147 150 153 156 160 163 166 170 173 176 179
55 58 62 65 68 71 75 78 81 85 88 91 94 98 101 104 107 111 114 117 120 124 127 130 134 137 140 143 147 150 153 156 160 163 166 170 173 176 179 183
58 62 65 68 71 75 78 81 85 88 91 94 98 101 104 107 111 114 117 120 124 127 130 134 137 140 143 147 150 153 156 160 163 166 170 173 176 179 183 186
62 65 68 71 75 78 81 85 88 91 94 98 101 104 107 111 114 117 120 124 127 130 134 137 140 143 147 150 153 156 160 163 166 170 173 176 179 183 186 189
65 68 71 75 78 81 85 88 91 94 98 101 104 107 111 114 117 120 124 127 130 134 137 140 143 147 150 153 156 160 163 166 170 173 176 179 183 186 189 192
68 71 75 78 81 85 88 91 94 98 101 104 107 111 114 117 120 124 127 130 134 137 140 143 147 150 153 156 160 163 166 170 173 176 179 183 186 189 192 196
71 75 78 81 85 88 91 94 98 101 104 107 111 114 117 120 124 127 130 134 137 140 143 147 150 153 156 160 163 166 170 173 176 179 183 186 189 192 196 199
75 78 81 85 88 91 94 98 101 104 107 111 114 117 120 124 127 130 134 137 140 143 147 150 153 156 160 163 166 170 173 176 179 183 186 189 192 196 199 202
78 81 85 88 91 94 98 101 104 107 111 114 117 120 124 127 130 134 137 140 143 147 150 153 156 160 163 166 170 173 176 179 183 186 189 192 196 199 202 205
81 85 88 91 94 98 101 104 107 111 114 117 120 124 127 130 134 137 140 143 147 150 153 156 160 163 166 170 173 176 179 183 186 189 192 196 199 202 205 209
85 88 91 94 98 101 104 107 111 114 117 120 124 127 130 134 137 140 143 147 150 153 156 160 163 166 170 173 176 179 183 186 189 192 196 199 202 205 209 212
88 91 94 98 101 104 107 111 114 117 120 124 127 130 134 137 140 143 147 150 153 156 160 163 166 170 173 176 179 183 186 189 192 196 199 202 205 209 212 215
91 94 98 101 104 107 111 114 117 120 124 127 130 134 137 140 143 147 150 153 156 160 163 166 170 173 176 179 183 186 189 192 196 199 202 205 209 212 215 219
94 98 101 104 107 111 114 117 120 124 127 130 134 137 140 143 147 150 153 156 160 163 166 170 173 176 179 183 186 189 192 196 199 202 205 209 212 215 219 222
98 101 104 107 111 114 117 120 124 127 130 134 137 140 143 147 150 153 156 160 163 166 170 173 176 179 183 186 189 192 196 199 202 205 209 212 215 219 222 225
101 104 107 111 114 117 120 124 127 130 134 137 140 143 147 150 153 156 160 163 166 170 173 176 179 183 186 189 192 196 199 202 205 209 212 215 219 222 225 228
104 107 111 114 117 120 124 127 130 134 137 140 143 147 150 153 156 160 163 166 170 173 176 179 183 186 189 192 196 199 202 205 209 212 215 219 222 225 228 232
107 111 114 117 120 124 127 130 134 137 140 143 147 150 153 156 160 163 166 170 173 176 179 183 186 189 192 196 199 202 205 209 212 215 219 222 225 228 232 235
111 114 117 120 124 127 130 134 137 140 143 147 150 153 156 160 163 166 170 173 176 179 183 186 189 192 196 199 202 205 209 212 215 219 222 225 228 232 235 238
114 117 120 124 127 130 134 137 140 143 147 150 153 156 160 163 166 170 173 176 179 183 186 189 192 196 199 202 205 209 212 215 219 222 225 228 232 235 238 241
117 120 124 127 130 134 137 140 143 147 150 153 156 160 163 166 170 173 176 179 183 186 189 192 196 199 202 205 209 212 215 219 222 225 228 232 235 238 241 245
120 124 127 130 134 137 140 143 147 150 153 156 160 163 166 170 173 176 179 183 186 189 192 196 199 202 205 209 212 215 219 222 225 228 232 235 238 241 245 248
124 127 130 134 137 140 143 147 150 153 156 160 163 166 170 173 176 179 183 186 189 192 196 199 202 205 209 212 215 219 222 225 228 232 235 238 241 245 248 250
127 130 134 137 140 143 147 150 153 156 160 163 166 170 173 176 179 183 186 189 192 196 199 202 205 209 212 215 219 222 225 228 232 235 238 241 245 248 250 250