P3
3 3
255
191 111  15   79 143  95   47  63 207
171 171  59   95 143 127   99  51 179
131 147  99   79  95  95   59  27  75
