P3
3 3
255
170 141 28   113 113 113  56 85 198
148 148 63   106 106 106  63 63 148
127 156 99   99  99  99   70 42  99
