P2
3 3
255
177 117 56
106  74 42
 35  32 28
