P2
3 3
255
191 125  42
103  91  44
 24  30  18