P2
3 3
255
159 227 195
111 167 183
111 131 147
