P2
3 3
255
 63 123 147
 15  63 111
 79  67  91